<?xml version="1.0" encoding="iso-8859-1"?>
<!-- Uploaded to: SVG Repo, www.svgrepo.com, Generator: SVG Repo Mixer Tools -->
<svg height="800px" width="800px" version="1.1" id="Layer_1" xmlns="http://www.w3.org/2000/svg" xmlns:xlink="http://www.w3.org/1999/xlink" 
	 viewBox="0 0 512 512" xml:space="preserve">
<circle style="fill:#FFEDB5;" cx="256" cy="256" r="256"/>
<path style="fill:#FEE187;" d="M149.744,238.523l123.425,123.425l30.239,7.83L316.625,138.2l45.909-65.371L509.43,219.726
	C511.11,231.577,512,243.684,512,256c0,122.258-85.707,224.482-200.311,249.908L109.773,303.992L149.744,238.523z"/>
<path style="fill:#EAA22F;" d="M312.889,436.148c-5.236,0-9.481-4.246-9.481-9.481V199.111c0-5.236,4.246-9.481,9.481-9.481
	s9.481,4.246,9.481,9.481v227.556C322.37,431.902,318.124,436.148,312.889,436.148z"/>
<path style="fill:#E09112;" d="M313.177,189.643v246.489c5.101-0.153,9.194-4.329,9.194-9.468V199.109
	C322.37,193.972,318.278,189.797,313.177,189.643z"/>
<circle style="fill:#C92F00;" cx="312.889" cy="142.222" r="85.333"/>
<path style="fill:#930000;" d="M398.222,142.222c0-47.032-38.05-85.17-85.045-85.326v170.653
	C360.172,227.392,398.222,189.254,398.222,142.222z"/>
<circle style="fill:#FF5419;" cx="312.889" cy="142.222" r="56.889"/>
<path style="fill:#C92F00;" d="M369.778,142.222c0-31.322-25.316-56.725-56.601-56.882v113.764
	C344.462,198.947,369.778,173.544,369.778,142.222z"/>
<circle style="fill:#E09112;" cx="312.889" cy="142.222" r="28.444"/>
<path style="fill:#FF5419;" d="M341.333,142.222c0-15.612-12.581-28.274-28.157-28.431v56.86
	C328.752,170.496,341.333,157.834,341.333,142.222z"/>
<ellipse transform="matrix(0.5211 -0.8535 0.8535 0.5211 -173.3867 349.2488)" style="fill:#FF314F;" cx="224.521" cy="329.129" rx="42.667" ry="71.111"/>
<path style="fill:#A30F44;" d="M246.77,292.705c-0.395-0.241-0.791-0.465-1.188-0.7l-45.465,72.152
	c0.724,0.464,1.446,0.929,2.186,1.381c33.52,20.464,70.647,20.751,82.927,0.64C297.51,346.065,280.292,313.172,246.77,292.705z"/>
<path style="fill:#FF6262;" d="M163.843,292.068c8.782-14.384,2.469-35.307-14.1-53.544l-39.97,65.469
	C133.566,310.396,155.062,306.452,163.843,292.068z"/>
<path style="fill:#FF314F;" d="M285.232,366.177c-8.782,14.384-2.469,35.307,14.1,53.545l39.97-65.469
	C315.509,347.848,294.014,351.792,285.232,366.177z"/>
</svg>